{
  "accessors": [
    {
      "bufferView": 2,
      "componentType": 5126,
      "count": 1933,
      "max": [
        0.16268900036811829,
        1,
        0.16268900036811829
      ],
      "min": [
        -0.16268900036811829,
        -1,
        -0.16268900036811829
      ],
      "type": "VEC3"
    },
    {
      "bufferView": 2,
      "byteOffset": 23196,
      "componentType": 5126,
      "count": 1933,
      "max": [
        1,
        1,
        1
      ],
      "min": [
        -1,
        -1,
        -1
      ],
      "type": "VEC3"
    },
    {
      "bufferView": 3,
      "componentType": 5126,
      "count": 1933,
      "max": [
        1,
        1,
        1,
        1
      ],
      "min": [
        -1,
        -1,
        -1,
        1
      ],
      "type": "VEC4"
    },
    {
      "bufferView": 1,
      "componentType": 5126,
      "count": 1933,
      "max": [
        0.9209740161895752,
        0.99786001443862915
      ],
      "min": [
        0.0076139997690916061,
        0.0019705500453710556
      ],
      "type": "VEC2"
    },
    {
      "bufferView": 0,
      "componentType": 5125,
      "count": 4938,
      "max": [
        1932
      ],
      "min": [
        0
      ],
      "type": "SCALAR"
    }
  ],
  "asset": {
    "extras": {
      "author": "warkarma (https://sketchfab.com/warkarma)",
      "license": "CC-BY-4.0 (http://creativecommons.org/licenses/by/4.0/)",
      "source": "https://sketchfab.com/3d-models/missile-stinger-d6561d942234408d8185926e1f5d0e1d",
      "title": "Missile (Stinger)"
    },
    "generator": "Sketchfab-6.49.1",
    "version": "2.0"
  },
  "bufferViews": [
    {
      "buffer": 0,
      "byteLength": 19752,
      "byteOffset": 0,
      "name": "floatBufferViews",
      "target": 34963
    },
    {
      "buffer": 0,
      "byteLength": 15464,
      "byteOffset": 19752,
      "byteStride": 8,
      "name": "floatBufferViews",
      "target": 34962
    },
    {
      "buffer": 0,
      "byteLength": 46392,
      "byteOffset": 35216,
      "byteStride": 12,
      "name": "floatBufferViews",
      "target": 34962
    },
    {
      "buffer": 0,
      "byteLength": 30928,
      "byteOffset": 81608,
      "byteStride": 16,
      "name": "floatBufferViews",
      "target": 34962
    }
  ],
  "buffers": [
    {
      "byteLength": 112536,
      "uri": "scene.bin"
    }
  ],
  "images": [
    {
      "uri": "textures/pin_Top_baseColor.jpeg"
    },
    {
      "uri": "textures/pin_Top_metallicRoughness.png"
    },
    {
      "uri": "textures/pin_Top_normal.jpeg"
    }
  ],
  "materials": [
    {
      "doubleSided": true,
      "name": "pin_Top",
      "normalTexture": {
        "index": 2,
        "scale": 1,
        "texCoord": 0
      },
      "occlusionTexture": {
        "index": 1,
        "strength": 1,
        "texCoord": 0
      },
      "pbrMetallicRoughness": {
        "baseColorFactor": [
          1,
          1,
          1,
          1
        ],
        "baseColorTexture": {
          "index": 0,
          "texCoord": 0
        },
        "metallicFactor": 1,
        "metallicRoughnessTexture": {
          "index": 1,
          "texCoord": 0
        },
        "roughnessFactor": 1
      }
    }
  ],
  "meshes": [
    {
      "name": "defaultMaterial",
      "primitives": [
        {
          "attributes": {
            "NORMAL": 1,
            "POSITION": 0,
            "TANGENT": 2,
            "TEXCOORD_0": 3
          },
          "indices": 4,
          "material": 0,
          "mode": 4
        }
      ]
    }
  ],
  "nodes": [
    {
      "children": [
        1
      ],
      "name": "RootNode (gltf orientation matrix)",
      "rotation": [
        -0.70710678118654746,
        -0,
        -0,
        0.70710678118654757
      ]
    },
    {
      "children": [
        2
      ],
      "matrix": [
        -2.2204460492503131e-16,
        1.1102230246251565e-16,
        1,
        0,
        -1,
        -2.2204460492503131e-16,
        -1.1102230246251565e-16,
        0,
        1.1102230246251565e-16,
        -1,
        0,
        0,
        1.3031242751537775e-14,
        -3.1122939958549978e-07,
        -2.7640720645649708e-07,
        1
      ],
      "name": "RootNode (model correction matrix)"
    },
    {
      "children": [
        3
      ],
      "matrix": [
        1,
        0,
        0,
        0,
        0,
        -4.3711390063094768e-08,
        0.999999999999999,
        0,
        0,
        -0.999999999999999,
        -4.3711390063094768e-08,
        0,
        0,
        0,
        0,
        1
      ],
      "name": "Collada visual scene group"
    },
    {
      "children": [
        4
      ],
      "name": "Missile001"
    },
    {
      "mesh": 0,
      "name": "defaultMaterial"
    }
  ],
  "samplers": [
    {
      "magFilter": 9729,
      "minFilter": 9987,
      "wrapS": 10497,
      "wrapT": 10497
    }
  ],
  "scene": 0,
  "scenes": [
    {
      "name": "OSG_Scene",
      "nodes": [
        0
      ]
    }
  ],
  "textures": [
    {
      "sampler": 0,
      "source": 0
    },
    {
      "sampler": 0,
      "source": 1
    },
    {
      "sampler": 0,
      "source": 2
    }
  ]
}

